<svg width="282" height="246" viewBox="0 0 282 246" fill="none" xmlns="http://www.w3.org/2000/svg">
<g opacity="0.7">
<path d="M270.25 194.75C270.25 200.187 267.774 205.401 263.367 209.246C258.96 213.09 252.983 215.25 246.75 215.25H35.25C29.0174 215.25 23.0401 213.09 18.633 209.246C14.2259 205.401 11.75 200.187 11.75 194.75V82C11.75 76.5631 14.2259 71.3488 18.633 67.5043C23.0401 63.6598 29.0174 61.5 35.25 61.5H82.25L105.75 30.75H176.25L199.75 61.5H246.75C252.983 61.5 258.96 63.6598 263.367 67.5043C267.774 71.3488 270.25 76.5631 270.25 82V194.75Z" stroke="#1E1E1E" stroke-width="8" stroke-linecap="round" stroke-linejoin="round"/>
<path d="M141 174.25C166.957 174.25 188 155.894 188 133.25C188 110.606 166.957 92.25 141 92.25C115.043 92.25 94 110.606 94 133.25C94 155.894 115.043 174.25 141 174.25Z" stroke="#1E1E1E" stroke-width="8" stroke-linecap="round" stroke-linejoin="round"/>
</g>
</svg>
