<svg width="30" height="30" viewBox="0 0 30 30" fill="none" xmlns="http://www.w3.org/2000/svg">
<path d="M6.81249 17.325L8.09755 18.0988L8.10091 18.0931L6.81249 17.325ZM5.37499 19.7125L4.08994 18.9388L4.08971 18.9392L5.37499 19.7125ZM6.72499 23.375L6.24409 24.7959L6.24966 24.7977L6.72499 23.375ZM23.3125 23.375L22.8417 21.9508L22.8372 21.9524L23.3125 23.375ZM24.6625 19.7125L25.9487 18.9408L25.9475 18.9388L24.6625 19.7125ZM23.225 17.325L21.9257 18.0746L21.9327 18.0868L21.9399 18.0988L23.225 17.325ZM17.3375 4.00005L16.9193 5.44057C17.4682 5.59992 18.0599 5.4335 18.4453 5.0114C18.8306 4.5893 18.9426 3.98488 18.7341 3.45274L17.3375 4.00005ZM16.1375 3.75005L15.9514 5.23848L15.957 5.23915L16.1375 3.75005ZM12.7125 4.00005L11.3159 3.45274C11.1073 3.98497 11.2194 4.58949 11.6049 5.01159C11.9904 5.43369 12.5823 5.59999 13.1312 5.44042L12.7125 4.00005ZM15.025 2.13755C10.0591 2.13755 6.02499 6.17162 6.02499 11.1375H9.02499C9.02499 7.82848 11.7159 5.13755 15.025 5.13755V2.13755ZM6.02499 11.1375V14.75H9.02499V11.1375H6.02499ZM6.02499 14.75C6.02499 14.9506 5.97659 15.2899 5.8687 15.6785C5.76095 16.0667 5.62724 16.3839 5.52407 16.557L8.10091 18.0931C8.38524 17.6162 8.60778 17.0272 8.7594 16.481C8.91089 15.9352 9.02499 15.312 9.02499 14.75H6.02499ZM5.52744 16.5513L4.08994 18.9388L6.66004 20.4863L8.09754 18.0988L5.52744 16.5513ZM4.08971 18.9392C3.43389 20.0292 3.28273 21.2816 3.70114 22.4115C4.11889 23.5397 5.04678 24.3906 6.24409 24.7959L7.20588 21.9542C6.7782 21.8095 6.58734 21.5666 6.51446 21.3698C6.44224 21.1748 6.42859 20.8709 6.66027 20.4859L4.08971 18.9392ZM6.24966 24.7977C11.9457 26.7008 18.0918 26.7008 23.7878 24.7977L22.8372 21.9524C17.7582 23.6493 12.2793 23.6493 7.20032 21.9524L6.24966 24.7977ZM23.7833 24.7992C26.2139 23.9957 27.2652 21.135 25.9487 18.9408L23.3762 20.4843C23.7097 21.0401 23.4361 21.7544 22.8417 21.9509L23.7833 24.7992ZM25.9475 18.9388L24.51 16.5513L21.9399 18.0988L23.3774 20.4863L25.9475 18.9388ZM24.5243 16.5755C24.421 16.3964 24.2879 16.0731 24.1809 15.683C24.0735 15.2912 24.025 14.951 24.025 14.75H21.025C21.025 15.3116 21.139 15.9339 21.2878 16.4765C21.437 17.0207 21.654 17.6037 21.9257 18.0746L24.5243 16.5755ZM24.025 14.75V11.1375H21.025V14.75H24.025ZM24.025 11.1375C24.025 6.18412 19.9784 2.13755 15.025 2.13755V5.13755C18.3216 5.13755 21.025 7.84098 21.025 11.1375H24.025ZM17.7557 2.55953C17.303 2.4281 16.823 2.32216 16.318 2.26095L15.957 5.23915C16.277 5.27794 16.597 5.34699 16.9193 5.44057L17.7557 2.55953ZM16.3235 2.26163C14.9324 2.08773 13.5759 2.18697 12.2938 2.55967L13.1312 5.44042C13.9991 5.18813 14.9426 5.11236 15.9514 5.23847L16.3235 2.26163ZM14.1091 4.54736C14.2527 4.18092 14.6093 3.92505 15.025 3.92505V0.925049C13.3407 0.925049 11.8973 1.96918 11.3159 3.45274L14.1091 4.54736ZM15.025 3.92505C15.4407 3.92505 15.7973 4.18092 15.9409 4.54736L18.7341 3.45274C18.1527 1.96918 16.7093 0.925049 15.025 0.925049V3.92505ZM17.275 23.825C17.275 25.0591 16.2591 26.075 15.025 26.075V29.075C17.9159 29.075 20.275 26.716 20.275 23.825H17.275ZM15.025 26.075C14.415 26.075 13.8417 25.8204 13.4356 25.4144L11.3143 27.5357C12.2583 28.4797 13.585 29.075 15.025 29.075V26.075ZM13.4356 25.4144C13.0296 25.0083 12.775 24.4351 12.775 23.825H9.77499C9.77499 25.265 10.3704 26.5918 11.3143 27.5357L13.4356 25.4144Z" fill="#292D32" fill-opacity="0.9"/>
</svg>
