<svg width="31" height="30" viewBox="0 0 31 30" fill="none" xmlns="http://www.w3.org/2000/svg">
<path d="M19.875 25.6375C19.9 25.675 19.9375 25.7 19.9625 25.7375C20.8625 26.8125 22.225 27.5 23.75 27.5C25.0125 27.5 26.1625 27.0375 27.0375 26.25C27.425 25.925 27.7625 25.525 28.025 25.075C28.4875 24.325 28.75 23.4375 28.75 22.5C28.75 21.1875 28.2375 20 27.4125 19.1C27.2875 18.9625 27.15 18.825 27 18.7125M19.875 25.6375C19.725 25.4625 19.5875 25.275 19.475 25.075C19.0125 24.325 18.75 23.4375 18.75 22.5C18.75 20.925 19.475 19.5125 20.625 18.6C21.4875 17.9125 22.575 17.5 23.75 17.5C25 17.5 26.125 17.95 27 18.7125M19.875 25.6375L17.5875 26.9C16.1625 27.7 13.8375 27.7 12.4125 26.9L5.73748 23.2C4.22498 22.3625 2.98749 20.2625 2.98749 18.5375V11.4625C2.98749 9.7375 4.22498 7.63753 5.73748 6.80003L12.4125 3.1C13.8375 2.3 16.1625 2.3 17.5875 3.1L24.2625 6.80003C25.775 7.63753 27.0125 9.7375 27.0125 11.4625V18.5375C27.0125 18.6 27.0125 18.65 27 18.7125M25.6125 22.475H21.8875M23.75 20.65V24.3875M3.96249 9.3L15 15.6875L25.9625 9.33746M15 27.0125V15.675" stroke="#292D32" stroke-opacity="0.8" stroke-width="3" stroke-linecap="round" stroke-linejoin="round"/>
</svg>
