<svg width="287" height="249" viewBox="0 0 287 249" fill="none" xmlns="http://www.w3.org/2000/svg">
<path d="M239.167 176.001V198.089C239.167 200.703 238.093 202.925 235.947 204.755C233.801 206.585 231.194 207.5 228.128 207.5H58.8717C55.8055 207.5 53.1992 206.585 51.0528 204.755C48.9064 202.925 47.8333 200.703 47.8333 198.089V176.001C47.8333 173.386 48.9064 171.164 51.0528 169.334C53.1992 167.504 55.8055 166.589 58.8717 166.589H99.7569C104.705 166.589 108.915 169.474 112.251 172.669C113.371 173.742 114.646 174.721 116.076 175.608C119.871 177.961 124.106 179.138 128.782 179.138H158.218C162.894 179.138 167.129 177.961 170.924 175.608C172.354 174.721 173.629 173.742 174.749 172.669C178.085 169.474 182.295 166.589 187.243 166.589H228.128C231.194 166.589 233.801 167.504 235.947 169.334C238.093 171.164 239.167 173.386 239.167 176.001ZM200.298 83.6715C198.995 86.2857 196.734 87.5929 193.514 87.5929H164.078V131.512C164.078 133.212 163.35 134.682 161.893 135.924C160.437 137.166 158.712 137.787 156.719 137.787H127.283C125.29 137.787 123.565 137.166 122.109 135.924C120.653 134.682 119.924 133.212 119.924 131.512V87.5929H90.4884C87.2689 87.5929 85.0075 86.2857 83.7044 83.6715C82.4012 81.1226 82.9378 78.8678 85.3141 76.9071L136.827 32.9877C138.207 31.7459 139.932 31.125 142.001 31.125C144.071 31.125 145.796 31.7459 147.176 32.9877L198.688 76.9071C201.065 78.8678 201.601 81.1226 200.298 83.6715Z" stroke="black" stroke-opacity="0.7" stroke-width="10" stroke-linejoin="round"/>
</svg>
