<svg width="50" height="50" viewBox="0 0 50 50" fill="none" xmlns="http://www.w3.org/2000/svg">
<path d="M25.0417 6.06246C18.1459 6.06246 12.5417 11.6666 12.5417 18.5625V24.5833C12.5417 25.8541 12.0001 27.7916 11.3542 28.875L8.95839 32.8541C7.47923 35.3125 8.50006 38.0416 11.2084 38.9583C20.1876 41.9583 29.8751 41.9583 38.8542 38.9583C41.3751 38.125 42.4792 35.1458 41.1042 32.8541L38.7084 28.875C38.0834 27.7916 37.5417 25.8541 37.5417 24.5833V18.5625C37.5417 11.6875 31.9167 6.06246 25.0417 6.06246Z" fill="white"/>
<path d="M28.8959 6.66663C28.2501 6.47913 27.5834 6.33329 26.8959 6.24996C24.8959 5.99996 22.9792 6.14579 21.1876 6.66663C21.7917 5.12496 23.2917 4.04163 25.0417 4.04163C26.7917 4.04163 28.2917 5.12496 28.8959 6.66663Z" fill="white"/>
<path d="M31.2917 39.7083C31.2917 43.1458 28.4792 45.9583 25.0417 45.9583C23.3334 45.9583 21.7501 45.25 20.6251 44.125C19.5001 43 18.7917 41.4166 18.7917 39.7083" fill="white"/>
<path d="M11.3542 28.875L12.6393 29.6487L12.6426 29.6431L11.3542 28.875ZM8.95839 32.8541L7.67334 32.0804L7.67312 32.0808L8.95839 32.8541ZM11.2084 38.9583L10.7275 40.3791L10.7331 40.381L11.2084 38.9583ZM38.8542 38.9583L38.3834 37.5341L38.3789 37.5356L38.8542 38.9583ZM41.1042 32.8541L42.3905 32.0824L42.3893 32.0804L41.1042 32.8541ZM38.7084 28.875L37.4091 29.6245L37.4161 29.6367L37.4233 29.6487L38.7084 28.875ZM28.8959 6.66663L28.4777 8.10715C29.0266 8.2665 29.6183 8.10008 30.0037 7.67798C30.389 7.25588 30.501 6.65146 30.2925 6.11932L28.8959 6.66663ZM26.8959 6.24996L26.7098 7.73839L26.7154 7.73906L26.8959 6.24996ZM21.1876 6.66663L19.791 6.11932C19.5824 6.65155 19.6945 7.25607 20.08 7.67817C20.4655 8.10027 21.0574 8.26657 21.6063 8.107L21.1876 6.66663ZM25.0417 4.56246C17.3175 4.56246 11.0417 10.8382 11.0417 18.5625H14.0417C14.0417 12.4951 18.9743 7.56246 25.0417 7.56246V4.56246ZM11.0417 18.5625V24.5833H14.0417V18.5625H11.0417ZM11.0417 24.5833C11.0417 25.038 10.9392 25.6981 10.7448 26.3982C10.5506 27.0979 10.2981 27.7171 10.0658 28.1069L12.6426 29.6431C13.0561 28.9494 13.3974 28.0583 13.6355 27.2007C13.8735 26.3435 14.0417 25.3994 14.0417 24.5833H11.0417ZM10.0692 28.1012L7.67334 32.0804L10.2434 33.6278L12.6393 29.6487L10.0692 28.1012ZM7.67312 32.0808C6.72146 33.6624 6.52447 35.4336 7.10642 37.0052C7.68771 38.5751 8.98852 39.7905 10.7275 40.3791L11.6893 37.5375C10.7199 37.2094 10.1562 36.6019 9.91975 35.9635C9.68398 35.3268 9.71616 34.5042 10.2437 33.6275L7.67312 32.0808ZM10.7331 40.381C20.0207 43.4841 30.0419 43.4841 39.3296 40.381L38.3789 37.5356C29.7082 40.4325 20.3544 40.4325 11.6837 37.5356L10.7331 40.381ZM39.325 40.3825C42.764 39.2457 44.257 35.1932 42.3905 32.0824L39.818 33.6259C40.7015 35.0984 39.9862 37.0043 38.3834 37.5341L39.325 40.3825ZM42.3893 32.0804L39.9934 28.1012L37.4233 29.6487L39.8192 33.6278L42.3893 32.0804ZM40.0077 28.1254C39.7794 27.7296 39.5297 27.1043 39.3373 26.4027C39.1444 25.6995 39.0417 25.0384 39.0417 24.5833H36.0417C36.0417 25.399 36.2099 26.3421 36.4441 27.1962C36.6788 28.0519 37.0124 28.9369 37.4091 29.6245L40.0077 28.1254ZM39.0417 24.5833V18.5625H36.0417V24.5833H39.0417ZM39.0417 18.5625C39.0417 10.859 32.7452 4.56246 25.0417 4.56246V7.56246C31.0883 7.56246 36.0417 12.5159 36.0417 18.5625H39.0417ZM29.3141 5.22611C28.6031 5.01968 27.8564 4.8554 27.0764 4.76086L26.7154 7.73906C27.3104 7.81118 27.897 7.93857 28.4777 8.10715L29.3141 5.22611ZM27.0819 4.76154C24.8908 4.48764 22.7676 4.64521 20.7688 5.22625L21.6063 8.107C23.1908 7.64637 24.901 7.51227 26.7098 7.73838L27.0819 4.76154ZM22.5841 7.21394C22.9694 6.23083 23.926 5.54163 25.0417 5.54163V2.54163C22.6574 2.54163 20.614 4.01909 19.791 6.11932L22.5841 7.21394ZM25.0417 5.54163C26.1574 5.54163 27.114 6.23083 27.4993 7.21394L30.2925 6.11932C29.4694 4.01909 27.426 2.54163 25.0417 2.54163V5.54163ZM29.7917 39.7083C29.7917 42.3174 27.6508 44.4583 25.0417 44.4583V47.4583C29.3077 47.4583 32.7917 43.9742 32.7917 39.7083H29.7917ZM25.0417 44.4583C23.7484 44.4583 22.5418 43.9203 21.6857 43.0643L19.5644 45.1856C20.9584 46.5796 22.9184 47.4583 25.0417 47.4583V44.4583ZM21.6857 43.0643C20.8297 42.2082 20.2917 41.0017 20.2917 39.7083H17.2917C17.2917 41.8316 18.1705 43.7917 19.5644 45.1856L21.6857 43.0643Z" fill="#292D32" fill-opacity="0.8"/>
</svg>
